<?xml version="1.0" encoding="utf-8"?>
<!-- Generator: Adobe Illustrator 28.1.0, SVG Export Plug-In . SVG Version: 6.00 Build 0)  -->
<svg version="1.1" id="Layer_2_00000160870807675383077530000017428790945805781423_"
	 xmlns="http://www.w3.org/2000/svg" xmlns:xlink="http://www.w3.org/1999/xlink" x="0px" y="0px" viewBox="0 0 538.7 74.5"
	 style="enable-background:new 0 0 538.7 74.5;" xml:space="preserve">
<style type="text/css">
	.st0{fill:#EC5C24;}
	.st1{fill:#2C373A;}
	.st2{fill:#FFFFFF;}
	.st3{font-family:'PFAgoraSansPro-Light';}
	.st4{font-size:48px;}
</style>
<g id="Layer_1-2">
	<g>
		<g>
			<rect y="4.9" class="st0" width="538.7" height="69.6"/>
			<rect class="st1" width="538.7" height="69.6"/>
		</g>
	</g>
</g>
<path class="st2" d="M49.7,50V17.3h18.9v2.2h-16v12.1h13.7v2.2H52.5v14.1h16.8V50H49.7z"/>
<path class="st2" d="M89.4,50V28.8H76.9V50h-2.7V26.7H92V50H89.4z"/>
<path class="st2" d="M98.6,26.7h2.7v21.2h3l0.1,1.6c-1.1,0.5-2.1,0.7-3.1,0.7c-0.9,0-1.6-0.2-2.1-0.6c-0.5-0.4-0.7-1.1-0.7-2.1V26.7
	z"/>
<path class="st2" d="M111.1,37.4l2.7-2.8l8-7.9h3.1l-9.2,9.1c0.3,0.3,0.5,0.6,0.7,0.9c0.2,0.3,0.5,0.6,0.7,1c0.4,0.6,1,1.5,1.8,2.6
	c0.8,1.1,1.5,2.3,2.4,3.5c0.8,1.2,1.6,2.4,2.4,3.5c0.8,1.1,1.4,2,1.8,2.6h-3c-1.4-2.1-2.9-4.2-4.2-6.3c-1.4-2.1-2.8-4.2-4.2-6.3
	c-0.5,0.5-1,1.1-1.6,1.6c-0.5,0.5-1,1-1.6,1.6V50h-2.7V26.7h2.7v4.5l-0.1,6.1C110.8,37.3,110.9,37.4,111.1,37.4z"/>
<path class="st2" d="M148,38.5c0,1.4-0.2,2.9-0.5,4.3c-0.3,1.4-0.8,2.7-1.6,3.8c-0.8,1.1-1.8,2-3,2.7c-1.3,0.7-2.9,1-4.8,1
	c-1.9,0-3.4-0.3-4.7-1c-1.2-0.7-2.2-1.5-3-2.6c-0.7-1.1-1.3-2.3-1.6-3.8c-0.3-1.4-0.5-2.9-0.5-4.4s0.2-3,0.5-4.5
	c0.4-1.5,0.9-2.8,1.7-3.9c0.8-1.2,1.8-2.1,3.1-2.8c1.3-0.7,2.8-1.1,4.7-1.1c1.9,0,3.4,0.4,4.7,1.1c1.2,0.7,2.2,1.6,3,2.8
	c0.7,1.2,1.2,2.5,1.5,3.9S148,37,148,38.5z M145.2,38.6c0-1.1-0.1-2.3-0.3-3.5c-0.2-1.2-0.5-2.3-1-3.2c-0.5-1-1.2-1.8-2.1-2.4
	c-0.9-0.6-2.1-1-3.5-1s-2.6,0.3-3.6,0.9c-0.9,0.6-1.7,1.4-2.2,2.3c-0.5,1-0.9,2-1.1,3.2c-0.2,1.2-0.3,2.4-0.3,3.6
	c0,1.2,0.1,2.4,0.3,3.6c0.2,1.1,0.5,2.2,1.1,3s1.3,1.6,2.2,2.1c0.9,0.5,2.2,0.8,3.7,0.8c1.4,0,2.6-0.3,3.5-0.9
	c0.9-0.6,1.6-1.3,2.1-2.2c0.5-0.9,0.8-2,1-3.1C145.1,40.8,145.2,39.7,145.2,38.6z"/>
<text transform="matrix(1 0 0 1 150.27 50.05)" class="st2 st3 st4">ι</text>
<path class="st2" d="M164.4,38.6c-1.3-3.9-2.6-7.8-4-11.8h2.7c0.7,2.3,1.5,4.7,2.3,7c0.8,2.4,1.6,4.8,2.3,7.2
	c0.4,1.1,0.7,2.3,1.1,3.4c0.4,1.2,0.7,2.3,1.1,3.4h0.2c0.2-0.6,0.5-1.6,0.9-2.9c0.4-1.3,0.8-2.8,1.3-4.2c0.4-1.3,0.8-2.6,1.2-3.9
	c0.4-1.3,0.8-2.5,1.2-3.7c0.4-1.2,0.8-2.3,1.1-3.4c0.4-1.1,0.7-2,0.9-2.9h2.8c-1.4,4-2.8,8-4.1,11.9c-1.3,3.9-2.7,7.7-4,11.5h-3.3
	C166.9,46.2,165.7,42.4,164.4,38.6z"/>
<path class="st2" d="M198.7,34.1v8.7c0,0.7,0.1,1.3,0.3,2c0.2,0.6,0.5,1.2,0.9,1.7c0.4,0.5,0.9,0.9,1.5,1.2c0.6,0.3,1.3,0.5,2.2,0.5
	c1.2,0,2.3-0.3,3.1-0.8c0.8-0.5,1.5-1.2,2-2.1s0.8-1.9,1-3c0.2-1.2,0.3-2.4,0.3-3.6c0-1-0.1-2.1-0.2-3.1c-0.2-1-0.4-2-0.8-3
	c-0.4-0.9-0.9-1.8-1.6-2.5c-0.7-0.7-1.5-1.3-2.5-1.8l0.7-1.9c1.3,0.4,2.4,1,3.3,1.8c0.9,0.8,1.6,1.8,2.2,2.9c0.6,1.1,1,2.3,1.2,3.6
	c0.2,1.3,0.4,2.6,0.4,3.8c0,1.5-0.2,3-0.5,4.4c-0.3,1.4-0.8,2.7-1.5,3.7c-0.7,1.1-1.6,1.9-2.8,2.6c-1.1,0.7-2.5,1-4.2,1
	c-1.4,0-2.7-0.3-3.9-1s-1.9-1.6-2.5-2.8h-0.1c-0.6,1.2-1.5,2.2-2.6,2.8c-1.1,0.7-2.4,1-3.8,1c-1.8,0-3.2-0.3-4.4-1
	c-1.2-0.7-2.1-1.5-2.7-2.6c-0.7-1.1-1.1-2.3-1.4-3.7c-0.3-1.4-0.4-2.9-0.4-4.4c0-1.2,0.1-2.5,0.4-3.8c0.2-1.3,0.6-2.5,1.2-3.6
	c0.6-1.1,1.3-2.1,2.2-2.9c0.9-0.8,2-1.4,3.4-1.8l0.6,1.9c-1,0.4-1.9,1-2.5,1.8s-1.2,1.6-1.5,2.5c-0.4,0.9-0.6,1.9-0.8,3
	c-0.1,1-0.2,2.1-0.2,3.1c0,1.1,0.1,2.2,0.2,3.4c0.2,1.1,0.5,2.1,0.9,3c0.4,0.9,1.1,1.7,1.9,2.2c0.8,0.6,1.9,0.9,3.3,0.9
	c0.9,0,1.7-0.2,2.3-0.5c0.7-0.3,1.2-0.7,1.6-1.2c0.4-0.5,0.7-1.1,0.9-1.7c0.2-0.6,0.3-1.3,0.3-2v-8.7H198.7z"/>
<path class="st2" d="M219.1,38.6c-1.3-3.9-2.6-7.8-4-11.8h2.7c0.7,2.3,1.5,4.7,2.3,7c0.8,2.4,1.6,4.8,2.3,7.2
	c0.4,1.1,0.7,2.3,1.1,3.4c0.4,1.2,0.7,2.3,1.1,3.4h0.2c0.2-0.6,0.5-1.6,0.9-2.9c0.4-1.3,0.8-2.8,1.3-4.2c0.4-1.3,0.8-2.6,1.2-3.9
	c0.4-1.3,0.8-2.5,1.2-3.7c0.4-1.2,0.8-2.3,1.1-3.4c0.4-1.1,0.7-2,0.9-2.9h2.8c-1.4,4-2.8,8-4.1,11.9c-1.3,3.9-2.7,7.7-4,11.5H223
	C221.7,46.2,220.4,42.4,219.1,38.6z"/>
<path class="st2" d="M252.9,50V34.4c0-0.9,0-1.7-0.1-2.4c-0.1-0.7-0.3-1.3-0.6-1.8s-0.7-0.9-1.3-1.2c-0.6-0.3-1.4-0.4-2.5-0.4
	c-0.6,0-1.3,0.1-2,0.2c-0.7,0.1-1.4,0.3-2.1,0.6c-0.7,0.2-1.4,0.5-2,0.8c-0.7,0.3-1.3,0.6-1.9,0.9v19h-2.7V26.7h2.7v2.2c0,0,0,0,0,0
	c0,0,0,0,0,0c0,0,0,0,0,0c1.4-0.9,2.9-1.5,4.5-2c1.6-0.5,2.9-0.7,4-0.7c1.5,0,2.7,0.2,3.6,0.6c0.9,0.4,1.5,1,1.9,1.6
	s0.7,1.4,0.8,2.3c0.1,0.8,0.2,1.6,0.2,2.4V50H252.9z M244.5,24.1l-1.4-1.1l5.1-7.6l2.3,1.8L244.5,24.1z"/>
<path class="st2" d="M276.6,28.8c0,0.1,0,0.1-0.1,0.2c0.7,0.5,1.2,1.1,1.6,1.9s0.8,1.6,1,2.4s0.4,1.8,0.5,2.7
	c0.1,0.9,0.1,1.8,0.1,2.7c0,1.6-0.2,3.2-0.6,4.6c-0.4,1.4-1,2.6-1.8,3.6c-0.8,1-1.8,1.8-3,2.4c-1.2,0.6-2.6,0.9-4.2,0.9
	c-1.8,0-3.3-0.3-4.6-0.8c-1.2-0.5-2.3-1.3-3-2.3c-0.8-1-1.4-2.2-1.7-3.6c-0.4-1.4-0.5-3-0.5-4.8c0-1.6,0.2-3.1,0.5-4.5
	c0.4-1.5,0.9-2.7,1.7-3.9c0.8-1.1,1.8-2,3.1-2.7s2.8-1,4.6-1h11.4v2.1H276.6z M270.2,28.8c-1.4,0-2.6,0.3-3.5,0.9
	c-0.9,0.6-1.7,1.3-2.2,2.3s-0.9,2-1.2,3.2c-0.2,1.2-0.3,2.4-0.3,3.7c0,3.1,0.6,5.4,1.7,7s3,2.4,5.5,2.4c1.2,0,2.2-0.2,3-0.7
	c0.9-0.5,1.6-1.2,2.1-2c0.6-0.8,1-1.8,1.3-3c0.3-1.2,0.4-2.4,0.4-3.7c0-1.1-0.1-2.3-0.2-3.5c-0.2-1.2-0.5-2.3-1-3.2
	s-1.2-1.7-2.1-2.4C272.9,29.1,271.7,28.8,270.2,28.8z"/>
<path class="st2" d="M299.5,26.7v2.1h-7.8v15.4c0,1.2,0.2,2.1,0.7,2.8c0.5,0.7,1.4,1.1,2.9,1.1c1.2,0,2.7-0.3,4.5-0.8l0.4,1.8
	c-0.8,0.4-1.7,0.6-2.6,0.9c-1,0.2-1.9,0.3-2.8,0.3c-1.7,0-3.1-0.4-4.2-1.2S289,46.9,289,45V28.7h-5.6v-2.1H299.5z"/>
<path class="st2" d="M311.7,26.2c0.6,0,1.2,0,1.9,0.1s1.3,0.1,2,0.2c0.7,0.1,1.3,0.2,1.9,0.4c0.6,0.1,1.1,0.3,1.6,0.5l-0.6,2
	c-1.4-0.4-2.6-0.7-3.6-0.8c-1-0.1-2-0.2-2.8-0.2c-1.1,0-2,0.1-2.7,0.4c-0.8,0.2-1.4,0.6-1.8,0.9c-0.5,0.4-0.8,0.8-1,1.3
	c-0.2,0.5-0.3,1.1-0.3,1.6c0,0.8,0.2,1.4,0.5,1.9c0.3,0.5,0.7,0.9,1.2,1.1c0.5,0.3,1.1,0.4,1.8,0.5c0.7,0.1,1.3,0.1,1.9,0.1h3.3v2
	h-3.4c-0.6,0-1.3,0.1-2,0.2s-1.3,0.4-1.9,0.8s-1,0.9-1.4,1.5c-0.4,0.6-0.6,1.4-0.6,2.4c0,0.9,0.2,1.7,0.5,2.3
	c0.4,0.6,0.8,1.2,1.5,1.6c0.6,0.4,1.3,0.7,2.2,0.9c0.8,0.2,1.7,0.3,2.7,0.3c1.2,0,2.4-0.2,3.6-0.5c1.2-0.3,2.3-0.7,3.6-1.3l0.7,1.7
	c-0.9,0.5-2.1,1-3.6,1.4c-1.4,0.4-2.9,0.6-4.5,0.6c-1.2,0-2.3-0.1-3.5-0.3c-1.1-0.2-2.1-0.6-3-1.1c-0.9-0.5-1.6-1.2-2.1-2.1
	c-0.5-0.9-0.8-2-0.8-3.3c0-1.5,0.4-2.8,1.2-3.9c0.8-1.1,1.9-1.8,3.3-2.2l0-0.1c-1.2-0.3-2.1-0.8-2.9-1.6c-0.8-0.8-1.2-1.8-1.2-3
	c0-1.1,0.2-2,0.6-2.8c0.4-0.8,1-1.5,1.8-2.1c0.8-0.6,1.7-1,2.7-1.2C309.5,26.4,310.5,26.2,311.7,26.2z"/>
<path class="st2" d="M339.6,49.6v10.6h-2.7V26.6h2.7v16.2c0,0.9,0.1,1.7,0.2,2.4c0.1,0.7,0.4,1.2,0.8,1.7c0.4,0.5,0.9,0.8,1.5,1.1
	c0.7,0.2,1.5,0.4,2.5,0.4c0.9,0,2-0.3,3.4-0.8c1.3-0.5,2.6-1.4,3.8-2.5V26.6h2.7V50h-2.6v-2.9c0,0,0,0,0,0c0,0,0,0-0.1,0
	c-0.9,0.8-1.7,1.4-2.4,1.8c-0.8,0.4-1.5,0.8-2.2,1s-1.3,0.4-1.8,0.5c-0.6,0.1-1.1,0.1-1.6,0.1c-1.8,0-3-0.3-3.8-1L339.6,49.6z"/>
<path class="st2" d="M375.4,47.6C375.4,47.6,375.4,47.5,375.4,47.6c-0.1,0-0.1,0-0.1,0c-1.5,1.2-2.9,2-4.3,2.3s-2.5,0.5-3.6,0.5
	c-1.5,0-2.8-0.3-3.8-0.9c-1-0.6-1.9-1.4-2.5-2.4c-0.6-1-1.1-2.2-1.4-3.7c-0.3-1.4-0.4-3-0.4-4.7c0-1.6,0.2-3.1,0.5-4.6
	s0.9-2.8,1.6-4c0.7-1.2,1.7-2.1,2.9-2.8c1.2-0.7,2.6-1,4.3-1c1.2,0,2.4,0.2,3.6,0.6c1.2,0.4,2.3,1,3.3,1.8l0.6-2.1h1.9v21.3h3.1
	l0.1,1.6c-0.5,0.3-1.1,0.4-1.7,0.5c-0.6,0.1-1.1,0.1-1.5,0.1C376.2,50.2,375.4,49.3,375.4,47.6z M375.3,45.1c0-2.3,0-4.7,0-7
	c0-2.3,0-4.7,0-7c-0.4-0.3-0.8-0.6-1.3-0.9c-0.5-0.3-1-0.6-1.6-0.8c-0.5-0.2-1.1-0.4-1.7-0.6c-0.6-0.1-1.2-0.2-1.8-0.2
	c-2.3,0-4,0.9-5.2,2.7c-1.1,1.8-1.7,4.2-1.7,7.4c0,1.9,0.2,3.4,0.5,4.7c0.3,1.2,0.7,2.2,1.3,2.9c0.6,0.7,1.2,1.2,2,1.5
	s1.6,0.4,2.5,0.4c1,0,2.2-0.3,3.5-0.8C373.1,46.9,374.3,46.1,375.3,45.1z"/>
<path class="st2" d="M402.2,16.3v2c-2.3,1.9-4.3,3.8-6.2,5.8c-1.9,2-3.5,3.9-4.8,5.8c-1.3,1.9-2.3,3.7-3.1,5.5
	c-0.7,1.7-1.1,3.3-1.1,4.7c0,1,0.2,1.9,0.5,2.6c0.4,0.7,0.9,1.3,1.7,1.9c0.8,0.6,1.9,1.1,3.3,1.7s3,1.1,5,1.9c1.5,0.6,2.5,1.1,3,1.6
	c0.5,0.5,0.8,1.1,0.8,1.9c0,0.4-0.1,0.8-0.4,1.3c-0.2,0.5-0.6,1-0.9,1.6c-0.4,0.6-0.8,1.2-1.3,1.8c-0.5,0.6-1,1.2-1.6,1.8l-1.5-1.2
	c1-1.2,1.7-2.2,2.2-3c0.5-0.8,0.8-1.5,0.8-2c0-0.4-0.3-0.8-0.8-1.1c-0.5-0.3-1.2-0.6-1.9-0.8c-1.9-0.6-3.5-1.2-5-1.7
	c-1.5-0.5-2.7-1.1-3.7-1.8c-1-0.7-1.7-1.5-2.3-2.5c-0.5-1-0.8-2.2-0.8-3.8c0-1.1,0.3-2.5,0.8-4.1c0.6-1.6,1.4-3.4,2.6-5.3
	c1.2-1.9,2.7-3.9,4.5-6c1.8-2.1,4-4.2,6.6-6.3v0h-13.4v-2.2H402.2z"/>
<path class="st2" d="M405.2,24.1l-1.4-1.1l5.1-7.6l2.3,1.8L405.2,24.1z M404.4,26.7h2.7v21.2h3l0.1,1.6c-1.1,0.5-2.1,0.7-3.1,0.7
	c-0.9,0-1.6-0.2-2.1-0.6c-0.5-0.4-0.7-1.1-0.7-2.1V26.7z"/>
<path class="st2" d="M429.5,49.6v10.6h-2.7V26.6h2.7v16.2c0,0.9,0.1,1.7,0.2,2.4c0.1,0.7,0.4,1.2,0.8,1.7c0.4,0.5,0.9,0.8,1.5,1.1
	c0.7,0.2,1.5,0.4,2.5,0.4c0.9,0,2-0.3,3.4-0.8c1.3-0.5,2.6-1.4,3.8-2.5V26.6h2.7V50h-2.6v-2.9c0,0,0,0,0,0c0,0,0,0-0.1,0
	c-0.9,0.8-1.7,1.4-2.4,1.8c-0.8,0.4-1.5,0.8-2.2,1s-1.3,0.4-1.8,0.5c-0.6,0.1-1.1,0.1-1.6,0.1c-1.8,0-3-0.3-3.8-1L429.5,49.6z"/>
<path class="st2" d="M465.3,47.6C465.3,47.6,465.3,47.5,465.3,47.6c-0.1,0-0.1,0-0.1,0c-1.5,1.2-2.9,2-4.3,2.3s-2.5,0.5-3.6,0.5
	c-1.5,0-2.8-0.3-3.8-0.9c-1-0.6-1.9-1.4-2.5-2.4c-0.6-1-1.1-2.2-1.4-3.7c-0.3-1.4-0.4-3-0.4-4.7c0-1.6,0.2-3.1,0.5-4.6
	s0.9-2.8,1.6-4c0.7-1.2,1.7-2.1,2.9-2.8c1.2-0.7,2.6-1,4.3-1c1.2,0,2.4,0.2,3.6,0.6c1.2,0.4,2.3,1,3.3,1.8l0.6-2.1h1.9v21.3h3.1
	l0.1,1.6c-0.5,0.3-1.1,0.4-1.7,0.5c-0.6,0.1-1.1,0.1-1.5,0.1C466.1,50.2,465.3,49.3,465.3,47.6z M465.2,45.1c0-2.3,0-4.7,0-7
	c0-2.3,0-4.7,0-7c-0.4-0.3-0.8-0.6-1.3-0.9c-0.5-0.3-1-0.6-1.6-0.8c-0.5-0.2-1.1-0.4-1.7-0.6c-0.6-0.1-1.2-0.2-1.8-0.2
	c-2.3,0-4,0.9-5.2,2.7c-1.1,1.8-1.7,4.2-1.7,7.4c0,1.9,0.2,3.4,0.5,4.7c0.3,1.2,0.7,2.2,1.3,2.9c0.6,0.7,1.2,1.2,2,1.5
	s1.6,0.4,2.5,0.4c1,0,2.2-0.3,3.5-0.8C463,46.9,464.2,46.1,465.2,45.1z"/>
<path class="st2" d="M484.4,26.2c1.5,0,2.8,0.1,3.9,0.4c1.1,0.2,2.2,0.5,3,0.9c0,0.1-0.1,0.2-0.1,0.4c-0.1,0.2-0.1,0.4-0.2,0.6
	c-0.1,0.2-0.1,0.4-0.2,0.6c-0.1,0.2-0.1,0.3-0.1,0.4c-1.1-0.4-2-0.7-3-0.9s-1.9-0.3-3-0.3c-1.3,0-2.5,0.2-3.5,0.7s-1.8,1.2-2.5,2.1
	c-0.6,0.9-1.1,1.9-1.4,3.1c-0.3,1.2-0.5,2.4-0.5,3.8c0,1.2,0.1,2.2,0.3,3.1s0.6,1.7,1.3,2.4c0.6,0.7,1.4,1.4,2.5,2.1
	c1,0.6,2.4,1.3,4,2c1.1,0.5,2,0.9,2.7,1.2c0.7,0.4,1.3,0.7,1.7,1c0.4,0.3,0.7,0.7,0.9,1c0.2,0.3,0.2,0.7,0.2,1.1
	c0,0.7-0.3,1.6-0.9,2.5c-0.6,1-1.6,2.1-2.8,3.5l-1.5-1.2c0.2-0.3,0.4-0.6,0.7-1c0.3-0.4,0.6-0.8,0.8-1.2c0.3-0.4,0.5-0.8,0.7-1.2
	c0.2-0.4,0.3-0.7,0.3-1c0-0.5-0.3-0.9-0.9-1.3s-1.7-0.9-3.3-1.5c-2-0.8-3.6-1.7-4.8-2.5c-1.2-0.8-2.1-1.7-2.8-2.6
	c-0.7-0.9-1.1-1.9-1.3-3c-0.2-1.1-0.3-2.3-0.3-3.6c0-1.8,0.2-3.4,0.7-4.8c0.5-1.5,1.1-2.7,2-3.7s1.9-1.8,3.2-2.4
	C481.4,26.5,482.8,26.2,484.4,26.2z"/>
</svg>
