<?xml version="1.0" encoding="utf-8"?>
<!-- Generator: Adobe Illustrator 28.1.0, SVG Export Plug-In . SVG Version: 6.00 Build 0)  -->
<svg version="1.1" id="Layer_2_00000158725331943904800150000004546413325716349361_"
	 xmlns="http://www.w3.org/2000/svg" xmlns:xlink="http://www.w3.org/1999/xlink" x="0px" y="0px" viewBox="0 0 538.7 74.5"
	 style="enable-background:new 0 0 538.7 74.5;" xml:space="preserve">
<style type="text/css">
	.st0{fill:#EC5C24;}
	.st1{fill:#2C373A;}
	.st2{fill:#FFFFFF;}
</style>
<g>
	<g>
		<rect y="4.9" class="st0" width="538.7" height="69.6"/>
		<rect class="st1" width="538.7" height="69.6"/>
	</g>
	<path class="st2" d="M125.5,51.4l-2.9-9h-13.5c-0.5,1.5-0.9,3-1.4,4.5c-0.4,1.5-0.9,3-1.4,4.5h-2.9l10.7-32.8h3.6
		c1.8,5.5,3.6,11,5.4,16.4c1.7,5.4,3.5,10.9,5.3,16.4H125.5z M121.9,40.2c-0.7-2.3-1.5-4.7-2.2-7c-0.7-2.3-1.4-4.6-2.2-6.9
		c-0.1-0.4-0.2-0.8-0.4-1.2c-0.1-0.5-0.3-0.9-0.4-1.4c-0.1-0.5-0.3-1-0.4-1.4c-0.1-0.5-0.3-0.9-0.4-1.2h-0.1l-1.6,5.3l-4.3,13.9
		H121.9z"/>
	<path class="st2" d="M134.8,38.8l2.7-2.8l8-7.9h3.1l-9.2,9.1c0.3,0.3,0.5,0.6,0.7,0.9c0.2,0.3,0.5,0.6,0.7,1c0.4,0.6,1,1.5,1.8,2.6
		c0.8,1.1,1.5,2.3,2.4,3.5c0.8,1.2,1.6,2.4,2.4,3.5c0.8,1.1,1.4,2,1.8,2.6h-3c-1.4-2.1-2.9-4.2-4.2-6.3c-1.4-2.1-2.8-4.2-4.2-6.3
		c-0.5,0.5-1,1.1-1.6,1.6c-0.5,0.5-1,1-1.6,1.6v9.5h-2.7V28.1h2.7v4.5l-0.1,6.1C134.6,38.7,134.6,38.7,134.8,38.8z"/>
	<path class="st2" d="M171.7,39.9c0,1.4-0.2,2.9-0.5,4.3c-0.3,1.4-0.8,2.7-1.6,3.8c-0.8,1.1-1.8,2-3,2.7c-1.3,0.7-2.9,1-4.8,1
		c-1.9,0-3.4-0.3-4.7-1c-1.2-0.7-2.2-1.5-3-2.6c-0.7-1.1-1.3-2.3-1.6-3.8c-0.3-1.4-0.5-2.9-0.5-4.4s0.2-3,0.5-4.5
		c0.4-1.5,0.9-2.8,1.7-3.9c0.8-1.2,1.8-2.1,3.1-2.8c1.3-0.7,2.8-1.1,4.7-1.1c1.9,0,3.4,0.4,4.7,1.1c1.2,0.7,2.2,1.6,3,2.8
		c0.7,1.2,1.2,2.5,1.5,3.9S171.7,38.3,171.7,39.9z M168.9,39.9c0-1.1-0.1-2.3-0.3-3.5c-0.2-1.2-0.5-2.3-1-3.2
		c-0.5-1-1.2-1.8-2.1-2.4c-0.9-0.6-2.1-1-3.5-1s-2.6,0.3-3.6,0.9c-0.9,0.6-1.7,1.4-2.2,2.3c-0.5,1-0.9,2-1.1,3.2
		c-0.2,1.2-0.3,2.4-0.3,3.6c0,1.2,0.1,2.4,0.3,3.6c0.2,1.1,0.5,2.2,1.1,3s1.3,1.6,2.2,2.1c0.9,0.5,2.2,0.8,3.7,0.8
		c1.4,0,2.6-0.3,3.5-0.9c0.9-0.6,1.6-1.3,2.1-2.2c0.5-0.9,0.8-2,1-3.1C168.8,42.2,168.9,41.1,168.9,39.9z"/>
	<path class="st2" d="M193.2,49.6h2.1l0.2,1.6c-0.4,0.2-0.9,0.3-1.4,0.4c-0.5,0.1-0.9,0.1-1.3,0.1c-0.5,0-1-0.1-1.3-0.3
		c-0.3-0.2-0.6-0.5-0.7-1l-5.7-19.5h-0.2l-8.1,20.5h-2.6l8.8-22.3h1.6l-2.4-7.8c-0.3-0.8-0.5-1.4-0.9-1.6c-0.3-0.2-0.8-0.4-1.4-0.4
		c-0.4,0-0.7,0-1,0c-0.3,0-0.7,0.1-1.3,0.2l-0.4-1.8c0.8-0.3,1.5-0.5,2-0.6s1-0.1,1.4-0.1c0.6,0,1.2,0.1,1.6,0.2
		c0.4,0.1,0.8,0.4,1.2,0.7c0.3,0.4,0.6,0.8,0.8,1.4c0.2,0.6,0.5,1.3,0.7,2.1L193.2,49.6z"/>
	<path class="st2" d="M218,39.9c0,1.4-0.2,2.9-0.5,4.3c-0.3,1.4-0.8,2.7-1.6,3.8c-0.8,1.1-1.8,2-3,2.7c-1.3,0.7-2.9,1-4.8,1
		c-1.9,0-3.4-0.3-4.7-1c-1.2-0.7-2.2-1.5-3-2.6c-0.7-1.1-1.3-2.3-1.6-3.8c-0.3-1.4-0.5-2.9-0.5-4.4s0.2-3,0.5-4.5
		c0.4-1.5,0.9-2.8,1.7-3.9c0.8-1.2,1.8-2.1,3.1-2.8c1.3-0.7,2.8-1.1,4.7-1.1c1.9,0,3.4,0.4,4.7,1.1c1.2,0.7,2.2,1.6,3,2.8
		c0.7,1.2,1.2,2.5,1.5,3.9S218,38.3,218,39.9z M215.3,39.9c0-1.1-0.1-2.3-0.3-3.5c-0.2-1.2-0.5-2.3-1-3.2c-0.5-1-1.2-1.8-2.1-2.4
		c-0.9-0.6-2.1-1-3.5-1s-2.6,0.3-3.6,0.9c-0.9,0.6-1.7,1.4-2.2,2.3c-0.5,1-0.9,2-1.1,3.2c-0.2,1.2-0.3,2.4-0.3,3.6
		c0,1.2,0.1,2.4,0.3,3.6c0.2,1.1,0.5,2.2,1.1,3s1.3,1.6,2.2,2.1c0.9,0.5,2.2,0.8,3.7,0.8c1.4,0,2.6-0.3,3.5-0.9
		c0.9-0.6,1.6-1.3,2.1-2.2c0.5-0.9,0.8-2,1-3.1C215.2,42.2,215.3,41.1,215.3,39.9z"/>
	<path class="st2" d="M241,28v14.5c0,1.2-0.2,2.4-0.6,3.5c-0.4,1.1-0.9,2.1-1.7,2.9c-0.8,0.8-1.7,1.5-2.8,1.9
		c-1.1,0.5-2.4,0.7-3.9,0.7c-1.5,0-2.8-0.2-3.9-0.6c-1.1-0.4-2-1-2.7-1.8c-0.7-0.8-1.2-1.7-1.6-2.7c-0.3-1.1-0.5-2.2-0.5-3.5V28h2.7
		v15c0,0.9,0.1,1.7,0.3,2.5c0.2,0.8,0.5,1.4,1,2c0.5,0.6,1.1,1,1.8,1.4s1.7,0.5,2.8,0.5c1.2,0,2.1-0.2,2.9-0.6
		c0.8-0.4,1.5-0.9,2-1.5c0.5-0.6,0.9-1.4,1.1-2.2c0.2-0.8,0.4-1.7,0.4-2.6V28H241z"/>
	<path class="st2" d="M255.8,51.7c-2.1,0-3.9-0.4-5.2-1.3c-1.3-0.9-2.3-2.1-3-3.7c-0.7-1.6-1.2-3.4-1.4-5.4
		c-0.2-2.1-0.3-4.3-0.3-6.6c0-2.1,0.1-4.2,0.4-6.3c0.2-2.1,0.7-4,1.4-5.6c0.7-1.7,1.7-3,3.1-4.1c1.3-1,3.1-1.6,5.3-1.6
		c2.2,0,3.9,0.5,5.2,1.6c1.3,1.1,2.3,2.4,2.9,4.1c0.7,1.7,1.1,3.5,1.3,5.6c0.2,2.1,0.3,4.1,0.3,6.2c0,2.1-0.1,4.2-0.4,6.3
		s-0.8,3.9-1.5,5.5c-0.8,1.6-1.8,2.9-3.1,3.9C259.6,51.2,257.9,51.7,255.8,51.7z M248.6,34.5c0,2.4,0.1,4.6,0.2,6.5
		c0.2,1.9,0.5,3.4,1,4.7c0.5,1.3,1.3,2.2,2.2,2.9s2.2,1,3.9,1c1.5,0,2.8-0.4,3.7-1.3c0.9-0.9,1.7-2,2.2-3.5s0.8-3,1-4.8
		c0.2-1.8,0.3-3.6,0.3-5.5H248.6z M256.1,19.3c-1.5,0-2.8,0.4-3.7,1.2s-1.7,1.8-2.2,3c-0.5,1.2-0.9,2.6-1.1,4.2
		c-0.2,1.6-0.3,3.2-0.4,4.8h14.4c0-1.6-0.1-3.2-0.3-4.8c-0.2-1.6-0.5-3-1-4.2c-0.5-1.2-1.2-2.2-2.1-3
		C258.7,19.7,257.6,19.3,256.1,19.3z"/>
	<path class="st2" d="M286,51.4V35.7c0-0.9,0-1.7-0.1-2.4c-0.1-0.7-0.3-1.3-0.6-1.8s-0.7-0.9-1.3-1.2s-1.4-0.4-2.5-0.4
		c-0.6,0-1.3,0.1-2,0.2c-0.7,0.1-1.4,0.3-2.1,0.6c-0.7,0.2-1.4,0.5-2,0.8c-0.7,0.3-1.3,0.6-1.9,0.9v19h-2.7V28h2.7v2.2c0,0,0,0,0,0
		s0,0,0,0c0,0,0,0,0,0c1.4-0.9,2.9-1.5,4.5-2c1.6-0.5,2.9-0.7,4-0.7c1.5,0,2.7,0.2,3.6,0.6s1.5,1,1.9,1.6c0.4,0.7,0.7,1.4,0.8,2.3
		s0.2,1.6,0.2,2.4v16.8H286z M277.6,25.5l-1.4-1.1l5.1-7.6l2.3,1.8L277.6,25.5z"/>
	<path class="st2" d="M309.7,30.2c0,0.1,0,0.1-0.1,0.2c0.7,0.5,1.2,1.1,1.6,1.9s0.8,1.6,1,2.4s0.4,1.8,0.5,2.7
		c0.1,0.9,0.1,1.8,0.1,2.7c0,1.6-0.2,3.2-0.6,4.6c-0.4,1.4-1,2.6-1.8,3.6c-0.8,1-1.8,1.8-3,2.4c-1.2,0.6-2.6,0.9-4.2,0.9
		c-1.8,0-3.3-0.3-4.6-0.8c-1.2-0.5-2.3-1.3-3-2.3s-1.4-2.2-1.7-3.6c-0.4-1.4-0.5-3-0.5-4.8c0-1.6,0.2-3.1,0.5-4.5
		c0.4-1.5,0.9-2.7,1.7-3.9s1.8-2,3.1-2.7c1.3-0.7,2.8-1,4.6-1h11.4v2.1H309.7z M303.3,30.2c-1.4,0-2.6,0.3-3.5,0.9
		c-0.9,0.6-1.7,1.3-2.2,2.3s-0.9,2-1.2,3.2c-0.2,1.2-0.3,2.4-0.3,3.7c0,3.1,0.6,5.4,1.7,7c1.1,1.6,3,2.4,5.5,2.4
		c1.2,0,2.2-0.2,3-0.7c0.9-0.5,1.6-1.2,2.1-2c0.6-0.8,1-1.8,1.3-3c0.3-1.2,0.4-2.4,0.4-3.7c0-1.1-0.1-2.3-0.2-3.5
		c-0.2-1.2-0.5-2.3-1-3.2s-1.2-1.7-2.1-2.4C305.9,30.5,304.7,30.2,303.3,30.2z"/>
	<path class="st2" d="M332.6,28v2.1h-7.8v15.4c0,1.2,0.2,2.1,0.7,2.8c0.5,0.7,1.4,1.1,2.9,1.1c1.2,0,2.7-0.3,4.5-0.8l0.4,1.8
		c-0.8,0.4-1.7,0.6-2.6,0.9c-1,0.2-1.9,0.3-2.8,0.3c-1.7,0-3.1-0.4-4.2-1.2s-1.6-2.2-1.6-4.1V30.1h-5.6V28H332.6z"/>
	<path class="st2" d="M344.8,27.6c0.6,0,1.2,0,1.9,0.1s1.3,0.1,2,0.2c0.7,0.1,1.3,0.2,1.9,0.4c0.6,0.1,1.1,0.3,1.6,0.5l-0.6,2
		c-1.4-0.4-2.6-0.7-3.6-0.8c-1-0.1-2-0.2-2.8-0.2c-1.1,0-2,0.1-2.7,0.4c-0.8,0.2-1.4,0.6-1.8,0.9c-0.5,0.4-0.8,0.8-1,1.3
		c-0.2,0.5-0.3,1.1-0.3,1.6c0,0.8,0.2,1.4,0.5,1.9c0.3,0.5,0.7,0.9,1.2,1.1c0.5,0.3,1.1,0.4,1.8,0.5c0.7,0.1,1.3,0.1,1.9,0.1h3.3v2
		h-3.4c-0.6,0-1.3,0.1-2,0.2s-1.3,0.4-1.9,0.8s-1,0.9-1.4,1.5c-0.4,0.6-0.6,1.4-0.6,2.4c0,0.9,0.2,1.7,0.5,2.3
		c0.4,0.6,0.8,1.2,1.5,1.6c0.6,0.4,1.3,0.7,2.2,0.9c0.8,0.2,1.7,0.3,2.7,0.3c1.2,0,2.4-0.2,3.6-0.5c1.2-0.3,2.3-0.7,3.6-1.3l0.7,1.7
		c-0.9,0.5-2.1,1-3.6,1.4c-1.4,0.4-2.9,0.6-4.5,0.6c-1.2,0-2.3-0.1-3.5-0.3c-1.1-0.2-2.1-0.6-3-1.1c-0.9-0.5-1.6-1.2-2.1-2.1
		c-0.5-0.9-0.8-2-0.8-3.3c0-1.5,0.4-2.8,1.2-3.9c0.8-1.1,1.9-1.8,3.3-2.2l0-0.1c-1.2-0.3-2.1-0.8-2.9-1.6c-0.8-0.8-1.2-1.8-1.2-3
		c0-1.1,0.2-2,0.6-2.8c0.4-0.8,1-1.5,1.8-2.1c0.8-0.6,1.7-1,2.7-1.2C342.5,27.7,343.6,27.6,344.8,27.6z"/>
	<path class="st2" d="M372.6,50.9v10.6h-2.7V28h2.7v16.2c0,0.9,0.1,1.7,0.2,2.4c0.1,0.7,0.4,1.2,0.8,1.7c0.4,0.5,0.9,0.8,1.5,1.1
		c0.7,0.2,1.5,0.4,2.5,0.4c0.9,0,2-0.3,3.4-0.8s2.6-1.4,3.8-2.5V28h2.7v23.4h-2.6v-2.9c0,0,0,0,0,0c0,0,0,0-0.1,0
		c-0.9,0.8-1.7,1.4-2.4,1.8c-0.8,0.4-1.5,0.8-2.2,1s-1.3,0.4-1.8,0.5c-0.6,0.1-1.1,0.1-1.6,0.1c-1.8,0-3-0.3-3.8-1L372.6,50.9z"/>
	<path class="st2" d="M408.5,48.9C408.5,48.9,408.4,48.9,408.5,48.9c-0.1,0-0.1,0-0.1,0c-1.5,1.2-2.9,2-4.3,2.3
		c-1.3,0.4-2.5,0.5-3.6,0.5c-1.5,0-2.8-0.3-3.8-0.9s-1.9-1.4-2.5-2.4c-0.6-1-1.1-2.2-1.4-3.7c-0.3-1.4-0.4-3-0.4-4.7
		c0-1.6,0.2-3.1,0.5-4.6s0.9-2.8,1.6-4s1.7-2.1,2.9-2.8c1.2-0.7,2.6-1,4.3-1c1.2,0,2.4,0.2,3.6,0.6c1.2,0.4,2.3,1,3.3,1.8l0.6-2.1
		h1.9v21.3h3.1l0.1,1.6c-0.5,0.3-1.1,0.4-1.7,0.5s-1.1,0.1-1.5,0.1C409.3,51.6,408.4,50.7,408.5,48.9z M408.4,46.5c0-2.3,0-4.7,0-7
		c0-2.3,0-4.7,0-7c-0.4-0.3-0.8-0.6-1.3-0.9c-0.5-0.3-1-0.6-1.6-0.8c-0.5-0.2-1.1-0.4-1.7-0.6s-1.2-0.2-1.8-0.2
		c-2.3,0-4,0.9-5.2,2.7s-1.7,4.2-1.7,7.4c0,1.9,0.2,3.4,0.5,4.7c0.3,1.2,0.7,2.2,1.3,2.9c0.6,0.7,1.2,1.2,2,1.5
		c0.8,0.3,1.6,0.4,2.5,0.4c1,0,2.2-0.3,3.5-0.8C406.2,48.2,407.3,47.5,408.4,46.5z"/>
	<path class="st2" d="M427.6,27.6c1.5,0,2.8,0.1,3.9,0.4s2.2,0.5,3,0.9c0,0.1-0.1,0.2-0.1,0.4c-0.1,0.2-0.1,0.4-0.2,0.6
		c-0.1,0.2-0.1,0.4-0.2,0.6c-0.1,0.2-0.1,0.3-0.1,0.4c-1.1-0.4-2-0.7-3-0.9s-1.9-0.3-3-0.3c-1.3,0-2.5,0.2-3.5,0.7
		c-1,0.5-1.8,1.2-2.5,2.1c-0.6,0.9-1.1,1.9-1.4,3.1c-0.3,1.2-0.5,2.4-0.5,3.8c0,1.2,0.1,2.2,0.3,3.1c0.2,0.9,0.6,1.7,1.3,2.4
		c0.6,0.7,1.4,1.4,2.5,2.1s2.4,1.3,4,2c1.1,0.5,2,0.9,2.7,1.2c0.7,0.4,1.3,0.7,1.7,1c0.4,0.3,0.7,0.7,0.9,1c0.2,0.3,0.2,0.7,0.2,1.1
		c0,0.7-0.3,1.6-0.9,2.5c-0.6,1-1.6,2.1-2.8,3.5l-1.5-1.2c0.2-0.3,0.4-0.6,0.7-1c0.3-0.4,0.6-0.8,0.8-1.2c0.3-0.4,0.5-0.8,0.7-1.2
		s0.3-0.7,0.3-1c0-0.5-0.3-0.9-0.9-1.3s-1.7-0.9-3.3-1.5c-2-0.8-3.6-1.7-4.8-2.5c-1.2-0.8-2.1-1.7-2.8-2.6c-0.7-0.9-1.1-1.9-1.3-3
		c-0.2-1.1-0.3-2.3-0.3-3.6c0-1.8,0.2-3.4,0.7-4.8c0.5-1.5,1.1-2.7,2-3.7c0.9-1,1.9-1.8,3.2-2.4C424.5,27.9,426,27.6,427.6,27.6z"/>
</g>
</svg>
